<svg id="bg-dots.svg" xmlns="http://www.w3.org/2000/svg" width="448" height="280" viewBox="0 0 448 280">
  <defs>
    <style>
      .cls-1 {
        fill: #bec8d1;
      }

      .cls-1, .cls-3 {
        fill-rule: evenodd;
      }

      .cls-2 {
        opacity: 0.27;
      }

      .cls-3 {
        fill: #9eb6d2;
      }
    </style>
  </defs>
  <g id="Dot_Feature" data-name="Dot Feature">
    <path id="Oval" class="cls-1" d="M602.555,603.332a0.889,0.889,0,1,0,.889-0.888A0.889,0.889,0,0,0,602.555,603.332Z" transform="translate(-311 -598)"/>
    <path id="Oval-2" data-name="Oval" class="cls-1" d="M602.555,622.888a0.889,0.889,0,1,0,.889-0.889A0.889,0.889,0,0,0,602.555,622.888Z" transform="translate(-311 -598)"/>
    <path id="Oval-3" data-name="Oval" class="cls-1" d="M602.555,642.443a0.889,0.889,0,1,0,.889-0.888A0.888,0.888,0,0,0,602.555,642.443Z" transform="translate(-311 -598)"/>
    <path id="Oval-4" data-name="Oval" class="cls-1" d="M602.555,662a0.889,0.889,0,1,0,.889-0.889A0.889,0.889,0,0,0,602.555,662Z" transform="translate(-311 -598)"/>
    <path id="Oval-5" data-name="Oval" class="cls-1" d="M602.555,681.555a0.889,0.889,0,1,0,.889-0.889A0.888,0.888,0,0,0,602.555,681.555Z" transform="translate(-311 -598)"/>
    <path id="Oval-6" data-name="Oval" class="cls-1" d="M602.555,701.11a0.889,0.889,0,1,0,.889-0.889A0.889,0.889,0,0,0,602.555,701.11Z" transform="translate(-311 -598)"/>
    <path id="Oval-7" data-name="Oval" class="cls-1" d="M602.555,720.666a0.889,0.889,0,1,0,.889-0.889A0.889,0.889,0,0,0,602.555,720.666Z" transform="translate(-311 -598)"/>
    <path id="Oval-8" data-name="Oval" class="cls-1" d="M602.555,740.222a0.889,0.889,0,1,0,.889-0.889A0.889,0.889,0,0,0,602.555,740.222Z" transform="translate(-311 -598)"/>
    <path id="Oval-9" data-name="Oval" class="cls-1" d="M602.555,759.777a0.889,0.889,0,1,0,.889-0.889A0.889,0.889,0,0,0,602.555,759.777Z" transform="translate(-311 -598)"/>
    <path id="Oval-10" data-name="Oval" class="cls-1" d="M602.555,779.333a0.889,0.889,0,1,0,.889-0.889A0.89,0.89,0,0,0,602.555,779.333Z" transform="translate(-311 -598)"/>
    <path id="Oval-11" data-name="Oval" class="cls-1" d="M602.555,798.888a0.889,0.889,0,1,0,.889-0.888A0.889,0.889,0,0,0,602.555,798.888Z" transform="translate(-311 -598)"/>
    <path id="Oval-12" data-name="Oval" class="cls-1" d="M602.555,818.444a0.889,0.889,0,1,0,.889-0.889A0.89,0.89,0,0,0,602.555,818.444Z" transform="translate(-311 -598)"/>
    <path id="Oval-13" data-name="Oval" class="cls-1" d="M602.555,838a0.889,0.889,0,1,0,.889-0.89A0.889,0.889,0,0,0,602.555,838Z" transform="translate(-311 -598)"/>
    <path id="Oval-14" data-name="Oval" class="cls-1" d="M602.555,857.555a0.889,0.889,0,1,0,.889-0.889A0.889,0.889,0,0,0,602.555,857.555Z" transform="translate(-311 -598)"/>
    <path id="Oval-15" data-name="Oval" class="cls-1" d="M602.555,877.11a0.889,0.889,0,1,0,.889-0.889A0.889,0.889,0,0,0,602.555,877.11Z" transform="translate(-311 -598)"/>
    <path id="Oval-16" data-name="Oval" class="cls-1" d="M583,603.332a0.889,0.889,0,1,0,.889-0.888A0.889,0.889,0,0,0,583,603.332Z" transform="translate(-311 -598)"/>
    <path id="Oval-17" data-name="Oval" class="cls-1" d="M583,622.888a0.889,0.889,0,1,0,.889-0.889A0.889,0.889,0,0,0,583,622.888Z" transform="translate(-311 -598)"/>
    <path id="Oval-18" data-name="Oval" class="cls-1" d="M583,642.443a0.889,0.889,0,1,0,.889-0.888A0.888,0.888,0,0,0,583,642.443Z" transform="translate(-311 -598)"/>
    <path id="Oval-19" data-name="Oval" class="cls-1" d="M583,662a0.889,0.889,0,1,0,.889-0.889A0.889,0.889,0,0,0,583,662Z" transform="translate(-311 -598)"/>
    <path id="Oval-20" data-name="Oval" class="cls-1" d="M583,681.555a0.889,0.889,0,1,0,.889-0.889A0.888,0.888,0,0,0,583,681.555Z" transform="translate(-311 -598)"/>
    <path id="Oval-21" data-name="Oval" class="cls-1" d="M583,701.11a0.889,0.889,0,1,0,.889-0.889A0.889,0.889,0,0,0,583,701.11Z" transform="translate(-311 -598)"/>
    <path id="Oval-22" data-name="Oval" class="cls-1" d="M583,720.666a0.889,0.889,0,1,0,.889-0.889A0.889,0.889,0,0,0,583,720.666Z" transform="translate(-311 -598)"/>
    <path id="Oval-23" data-name="Oval" class="cls-1" d="M583,740.222a0.889,0.889,0,1,0,.889-0.889A0.889,0.889,0,0,0,583,740.222Z" transform="translate(-311 -598)"/>
    <path id="Oval-24" data-name="Oval" class="cls-1" d="M583,759.777a0.889,0.889,0,1,0,.889-0.889A0.889,0.889,0,0,0,583,759.777Z" transform="translate(-311 -598)"/>
    <path id="Oval-25" data-name="Oval" class="cls-1" d="M583,779.333a0.889,0.889,0,1,0,.889-0.889A0.89,0.89,0,0,0,583,779.333Z" transform="translate(-311 -598)"/>
    <path id="Oval-26" data-name="Oval" class="cls-1" d="M583,798.888a0.889,0.889,0,1,0,.889-0.888A0.889,0.889,0,0,0,583,798.888Z" transform="translate(-311 -598)"/>
    <path id="Oval-27" data-name="Oval" class="cls-1" d="M583,818.444a0.889,0.889,0,1,0,.889-0.889A0.89,0.89,0,0,0,583,818.444Z" transform="translate(-311 -598)"/>
    <path id="Oval-28" data-name="Oval" class="cls-1" d="M583,838a0.889,0.889,0,1,0,.889-0.89A0.889,0.889,0,0,0,583,838Z" transform="translate(-311 -598)"/>
    <path id="Oval-29" data-name="Oval" class="cls-1" d="M583,857.555a0.889,0.889,0,1,0,.889-0.889A0.889,0.889,0,0,0,583,857.555Z" transform="translate(-311 -598)"/>
    <path id="Oval-30" data-name="Oval" class="cls-1" d="M583,877.11a0.889,0.889,0,1,0,.889-0.889A0.889,0.889,0,0,0,583,877.11Z" transform="translate(-311 -598)"/>
    <path id="Oval-31" data-name="Oval" class="cls-1" d="M563.444,603.332a0.889,0.889,0,1,0,.889-0.888A0.889,0.889,0,0,0,563.444,603.332Z" transform="translate(-311 -598)"/>
    <path id="Oval-32" data-name="Oval" class="cls-1" d="M563.444,622.888a0.889,0.889,0,1,0,.889-0.889A0.889,0.889,0,0,0,563.444,622.888Z" transform="translate(-311 -598)"/>
    <path id="Oval-33" data-name="Oval" class="cls-1" d="M563.444,642.443a0.889,0.889,0,1,0,.889-0.888A0.888,0.888,0,0,0,563.444,642.443Z" transform="translate(-311 -598)"/>
    <path id="Oval-34" data-name="Oval" class="cls-1" d="M563.444,662a0.889,0.889,0,1,0,.889-0.889A0.889,0.889,0,0,0,563.444,662Z" transform="translate(-311 -598)"/>
    <path id="Oval-35" data-name="Oval" class="cls-1" d="M563.444,681.555a0.889,0.889,0,1,0,.889-0.889A0.888,0.888,0,0,0,563.444,681.555Z" transform="translate(-311 -598)"/>
    <path id="Oval-36" data-name="Oval" class="cls-1" d="M563.444,701.11a0.889,0.889,0,1,0,.889-0.889A0.889,0.889,0,0,0,563.444,701.11Z" transform="translate(-311 -598)"/>
    <path id="Oval-37" data-name="Oval" class="cls-1" d="M563.444,720.666a0.889,0.889,0,1,0,.889-0.889A0.889,0.889,0,0,0,563.444,720.666Z" transform="translate(-311 -598)"/>
    <path id="Oval-38" data-name="Oval" class="cls-1" d="M563.444,740.222a0.889,0.889,0,1,0,.889-0.889A0.889,0.889,0,0,0,563.444,740.222Z" transform="translate(-311 -598)"/>
    <path id="Oval-39" data-name="Oval" class="cls-1" d="M563.444,759.777a0.889,0.889,0,1,0,.889-0.889A0.889,0.889,0,0,0,563.444,759.777Z" transform="translate(-311 -598)"/>
    <path id="Oval-40" data-name="Oval" class="cls-1" d="M563.444,779.333a0.889,0.889,0,1,0,.889-0.889A0.89,0.89,0,0,0,563.444,779.333Z" transform="translate(-311 -598)"/>
    <path id="Oval-41" data-name="Oval" class="cls-1" d="M563.444,798.888a0.889,0.889,0,1,0,.889-0.888A0.889,0.889,0,0,0,563.444,798.888Z" transform="translate(-311 -598)"/>
    <path id="Oval-42" data-name="Oval" class="cls-1" d="M563.444,818.444a0.889,0.889,0,1,0,.889-0.889A0.89,0.89,0,0,0,563.444,818.444Z" transform="translate(-311 -598)"/>
    <path id="Oval-43" data-name="Oval" class="cls-1" d="M563.444,838a0.889,0.889,0,1,0,.889-0.89A0.889,0.889,0,0,0,563.444,838Z" transform="translate(-311 -598)"/>
    <path id="Oval-44" data-name="Oval" class="cls-1" d="M563.444,857.555a0.889,0.889,0,1,0,.889-0.889A0.889,0.889,0,0,0,563.444,857.555Z" transform="translate(-311 -598)"/>
    <path id="Oval-45" data-name="Oval" class="cls-1" d="M563.444,877.11a0.889,0.889,0,1,0,.889-0.889A0.889,0.889,0,0,0,563.444,877.11Z" transform="translate(-311 -598)"/>
    <path id="Oval-46" data-name="Oval" class="cls-1" d="M543.889,603.332a0.889,0.889,0,1,0,.889-0.888A0.889,0.889,0,0,0,543.889,603.332Z" transform="translate(-311 -598)"/>
    <path id="Oval-47" data-name="Oval" class="cls-1" d="M543.889,622.888a0.889,0.889,0,1,0,.889-0.889A0.889,0.889,0,0,0,543.889,622.888Z" transform="translate(-311 -598)"/>
    <path id="Oval-48" data-name="Oval" class="cls-1" d="M543.889,642.443a0.889,0.889,0,1,0,.889-0.888A0.888,0.888,0,0,0,543.889,642.443Z" transform="translate(-311 -598)"/>
    <path id="Oval-49" data-name="Oval" class="cls-1" d="M543.889,662a0.889,0.889,0,1,0,.889-0.889A0.889,0.889,0,0,0,543.889,662Z" transform="translate(-311 -598)"/>
    <path id="Oval-50" data-name="Oval" class="cls-1" d="M543.889,681.555a0.889,0.889,0,1,0,.889-0.889A0.888,0.888,0,0,0,543.889,681.555Z" transform="translate(-311 -598)"/>
    <path id="Oval-51" data-name="Oval" class="cls-1" d="M543.889,701.11a0.889,0.889,0,1,0,.889-0.889A0.889,0.889,0,0,0,543.889,701.11Z" transform="translate(-311 -598)"/>
    <path id="Oval-52" data-name="Oval" class="cls-1" d="M543.889,720.666a0.889,0.889,0,1,0,.889-0.889A0.889,0.889,0,0,0,543.889,720.666Z" transform="translate(-311 -598)"/>
    <path id="Oval-53" data-name="Oval" class="cls-1" d="M543.889,740.222a0.889,0.889,0,1,0,.889-0.889A0.889,0.889,0,0,0,543.889,740.222Z" transform="translate(-311 -598)"/>
    <path id="Oval-54" data-name="Oval" class="cls-1" d="M543.889,759.777a0.889,0.889,0,1,0,.889-0.889A0.889,0.889,0,0,0,543.889,759.777Z" transform="translate(-311 -598)"/>
    <path id="Oval-55" data-name="Oval" class="cls-1" d="M543.889,779.333a0.889,0.889,0,1,0,.889-0.889A0.89,0.89,0,0,0,543.889,779.333Z" transform="translate(-311 -598)"/>
    <path id="Oval-56" data-name="Oval" class="cls-1" d="M543.889,798.888a0.889,0.889,0,1,0,.889-0.888A0.889,0.889,0,0,0,543.889,798.888Z" transform="translate(-311 -598)"/>
    <path id="Oval-57" data-name="Oval" class="cls-1" d="M543.889,818.444a0.889,0.889,0,1,0,.889-0.889A0.89,0.89,0,0,0,543.889,818.444Z" transform="translate(-311 -598)"/>
    <path id="Oval-58" data-name="Oval" class="cls-1" d="M543.889,838a0.889,0.889,0,1,0,.889-0.89A0.889,0.889,0,0,0,543.889,838Z" transform="translate(-311 -598)"/>
    <path id="Oval-59" data-name="Oval" class="cls-1" d="M543.889,857.555a0.889,0.889,0,1,0,.889-0.889A0.889,0.889,0,0,0,543.889,857.555Z" transform="translate(-311 -598)"/>
    <path id="Oval-60" data-name="Oval" class="cls-1" d="M543.889,877.11a0.889,0.889,0,1,0,.889-0.889A0.889,0.889,0,0,0,543.889,877.11Z" transform="translate(-311 -598)"/>
    <path id="Oval-61" data-name="Oval" class="cls-1" d="M524.333,603.332a0.889,0.889,0,1,0,.889-0.888A0.889,0.889,0,0,0,524.333,603.332Z" transform="translate(-311 -598)"/>
    <path id="Oval-62" data-name="Oval" class="cls-1" d="M524.333,622.888a0.889,0.889,0,1,0,.889-0.889A0.889,0.889,0,0,0,524.333,622.888Z" transform="translate(-311 -598)"/>
    <path id="Oval-63" data-name="Oval" class="cls-1" d="M524.333,642.443a0.889,0.889,0,1,0,.889-0.888A0.888,0.888,0,0,0,524.333,642.443Z" transform="translate(-311 -598)"/>
    <path id="Oval-64" data-name="Oval" class="cls-1" d="M524.333,662a0.889,0.889,0,1,0,.889-0.889A0.889,0.889,0,0,0,524.333,662Z" transform="translate(-311 -598)"/>
    <path id="Oval-65" data-name="Oval" class="cls-1" d="M524.333,681.555a0.889,0.889,0,1,0,.889-0.889A0.888,0.888,0,0,0,524.333,681.555Z" transform="translate(-311 -598)"/>
    <path id="Oval-66" data-name="Oval" class="cls-1" d="M524.333,701.11a0.889,0.889,0,1,0,.889-0.889A0.889,0.889,0,0,0,524.333,701.11Z" transform="translate(-311 -598)"/>
    <path id="Oval-67" data-name="Oval" class="cls-1" d="M524.333,720.666a0.889,0.889,0,1,0,.889-0.889A0.889,0.889,0,0,0,524.333,720.666Z" transform="translate(-311 -598)"/>
    <path id="Oval-68" data-name="Oval" class="cls-1" d="M524.333,740.222a0.889,0.889,0,1,0,.889-0.889A0.889,0.889,0,0,0,524.333,740.222Z" transform="translate(-311 -598)"/>
    <path id="Oval-69" data-name="Oval" class="cls-1" d="M524.333,759.777a0.889,0.889,0,1,0,.889-0.889A0.889,0.889,0,0,0,524.333,759.777Z" transform="translate(-311 -598)"/>
    <path id="Oval-70" data-name="Oval" class="cls-1" d="M524.333,779.333a0.889,0.889,0,1,0,.889-0.889A0.89,0.89,0,0,0,524.333,779.333Z" transform="translate(-311 -598)"/>
    <path id="Oval-71" data-name="Oval" class="cls-1" d="M524.333,798.888a0.889,0.889,0,1,0,.889-0.888A0.889,0.889,0,0,0,524.333,798.888Z" transform="translate(-311 -598)"/>
    <path id="Oval-72" data-name="Oval" class="cls-1" d="M524.333,818.444a0.889,0.889,0,1,0,.889-0.889A0.89,0.89,0,0,0,524.333,818.444Z" transform="translate(-311 -598)"/>
    <path id="Oval-73" data-name="Oval" class="cls-1" d="M524.333,838a0.889,0.889,0,1,0,.889-0.89A0.889,0.889,0,0,0,524.333,838Z" transform="translate(-311 -598)"/>
    <path id="Oval-74" data-name="Oval" class="cls-1" d="M524.333,857.555a0.889,0.889,0,1,0,.889-0.889A0.889,0.889,0,0,0,524.333,857.555Z" transform="translate(-311 -598)"/>
    <path id="Oval-75" data-name="Oval" class="cls-1" d="M524.333,877.11a0.889,0.889,0,1,0,.889-0.889A0.889,0.889,0,0,0,524.333,877.11Z" transform="translate(-311 -598)"/>
    <path id="Oval-76" data-name="Oval" class="cls-1" d="M504.778,603.332a0.889,0.889,0,1,0,.889-0.888A0.889,0.889,0,0,0,504.778,603.332Z" transform="translate(-311 -598)"/>
    <path id="Oval-77" data-name="Oval" class="cls-1" d="M504.778,622.888a0.889,0.889,0,1,0,.889-0.889A0.889,0.889,0,0,0,504.778,622.888Z" transform="translate(-311 -598)"/>
    <path id="Oval-78" data-name="Oval" class="cls-1" d="M504.778,642.443a0.889,0.889,0,1,0,.889-0.888A0.888,0.888,0,0,0,504.778,642.443Z" transform="translate(-311 -598)"/>
    <path id="Oval-79" data-name="Oval" class="cls-1" d="M504.778,662a0.889,0.889,0,1,0,.889-0.889A0.889,0.889,0,0,0,504.778,662Z" transform="translate(-311 -598)"/>
    <path id="Oval-80" data-name="Oval" class="cls-1" d="M504.778,681.555a0.889,0.889,0,1,0,.889-0.889A0.888,0.888,0,0,0,504.778,681.555Z" transform="translate(-311 -598)"/>
    <path id="Oval-81" data-name="Oval" class="cls-1" d="M504.778,701.11a0.889,0.889,0,1,0,.889-0.889A0.889,0.889,0,0,0,504.778,701.11Z" transform="translate(-311 -598)"/>
    <path id="Oval-82" data-name="Oval" class="cls-1" d="M504.778,720.666a0.889,0.889,0,1,0,.889-0.889A0.889,0.889,0,0,0,504.778,720.666Z" transform="translate(-311 -598)"/>
    <path id="Oval-83" data-name="Oval" class="cls-1" d="M504.778,740.222a0.889,0.889,0,1,0,.889-0.889A0.889,0.889,0,0,0,504.778,740.222Z" transform="translate(-311 -598)"/>
    <path id="Oval-84" data-name="Oval" class="cls-1" d="M504.778,759.777a0.889,0.889,0,1,0,.889-0.889A0.889,0.889,0,0,0,504.778,759.777Z" transform="translate(-311 -598)"/>
    <path id="Oval-85" data-name="Oval" class="cls-1" d="M504.778,779.333a0.889,0.889,0,1,0,.889-0.889A0.89,0.89,0,0,0,504.778,779.333Z" transform="translate(-311 -598)"/>
    <path id="Oval-86" data-name="Oval" class="cls-1" d="M504.778,798.888a0.889,0.889,0,1,0,.889-0.888A0.889,0.889,0,0,0,504.778,798.888Z" transform="translate(-311 -598)"/>
    <path id="Oval-87" data-name="Oval" class="cls-1" d="M504.778,818.444a0.889,0.889,0,1,0,.889-0.889A0.89,0.89,0,0,0,504.778,818.444Z" transform="translate(-311 -598)"/>
    <path id="Oval-88" data-name="Oval" class="cls-1" d="M504.778,838a0.889,0.889,0,1,0,.889-0.89A0.889,0.889,0,0,0,504.778,838Z" transform="translate(-311 -598)"/>
    <path id="Oval-89" data-name="Oval" class="cls-1" d="M504.778,857.555a0.889,0.889,0,1,0,.889-0.889A0.889,0.889,0,0,0,504.778,857.555Z" transform="translate(-311 -598)"/>
    <path id="Oval-90" data-name="Oval" class="cls-1" d="M504.778,877.11a0.889,0.889,0,1,0,.889-0.889A0.889,0.889,0,0,0,504.778,877.11Z" transform="translate(-311 -598)"/>
    <path id="Oval-91" data-name="Oval" class="cls-1" d="M485.222,603.332a0.889,0.889,0,1,0,.889-0.888A0.889,0.889,0,0,0,485.222,603.332Z" transform="translate(-311 -598)"/>
    <path id="Oval-92" data-name="Oval" class="cls-1" d="M485.222,622.888a0.889,0.889,0,1,0,.889-0.889A0.889,0.889,0,0,0,485.222,622.888Z" transform="translate(-311 -598)"/>
    <path id="Oval-93" data-name="Oval" class="cls-1" d="M485.222,642.443a0.889,0.889,0,1,0,.889-0.888A0.888,0.888,0,0,0,485.222,642.443Z" transform="translate(-311 -598)"/>
    <path id="Oval-94" data-name="Oval" class="cls-1" d="M485.222,662a0.889,0.889,0,1,0,.889-0.889A0.889,0.889,0,0,0,485.222,662Z" transform="translate(-311 -598)"/>
    <path id="Oval-95" data-name="Oval" class="cls-1" d="M485.222,681.555a0.889,0.889,0,1,0,.889-0.889A0.888,0.888,0,0,0,485.222,681.555Z" transform="translate(-311 -598)"/>
    <path id="Oval-96" data-name="Oval" class="cls-1" d="M485.222,701.11a0.889,0.889,0,1,0,.889-0.889A0.889,0.889,0,0,0,485.222,701.11Z" transform="translate(-311 -598)"/>
    <path id="Oval-97" data-name="Oval" class="cls-1" d="M485.222,720.666a0.889,0.889,0,1,0,.889-0.889A0.889,0.889,0,0,0,485.222,720.666Z" transform="translate(-311 -598)"/>
    <path id="Oval-98" data-name="Oval" class="cls-1" d="M485.222,740.222a0.889,0.889,0,1,0,.889-0.889A0.889,0.889,0,0,0,485.222,740.222Z" transform="translate(-311 -598)"/>
    <path id="Oval-99" data-name="Oval" class="cls-1" d="M485.222,759.777a0.889,0.889,0,1,0,.889-0.889A0.889,0.889,0,0,0,485.222,759.777Z" transform="translate(-311 -598)"/>
    <path id="Oval-100" data-name="Oval" class="cls-1" d="M485.222,779.333a0.889,0.889,0,1,0,.889-0.889A0.89,0.89,0,0,0,485.222,779.333Z" transform="translate(-311 -598)"/>
    <path id="Oval-101" data-name="Oval" class="cls-1" d="M485.222,798.888a0.889,0.889,0,1,0,.889-0.888A0.889,0.889,0,0,0,485.222,798.888Z" transform="translate(-311 -598)"/>
    <path id="Oval-102" data-name="Oval" class="cls-1" d="M485.222,818.444a0.889,0.889,0,1,0,.889-0.889A0.89,0.89,0,0,0,485.222,818.444Z" transform="translate(-311 -598)"/>
    <path id="Oval-103" data-name="Oval" class="cls-1" d="M485.222,838a0.889,0.889,0,1,0,.889-0.89A0.889,0.889,0,0,0,485.222,838Z" transform="translate(-311 -598)"/>
    <path id="Oval-104" data-name="Oval" class="cls-1" d="M485.222,857.555a0.889,0.889,0,1,0,.889-0.889A0.889,0.889,0,0,0,485.222,857.555Z" transform="translate(-311 -598)"/>
    <path id="Oval-105" data-name="Oval" class="cls-1" d="M485.222,877.11a0.889,0.889,0,1,0,.889-0.889A0.889,0.889,0,0,0,485.222,877.11Z" transform="translate(-311 -598)"/>
    <path id="Oval-106" data-name="Oval" class="cls-1" d="M465.667,603.332a0.889,0.889,0,1,0,.888-0.888A0.889,0.889,0,0,0,465.667,603.332Z" transform="translate(-311 -598)"/>
    <path id="Oval-107" data-name="Oval" class="cls-1" d="M465.667,622.888a0.889,0.889,0,1,0,.888-0.889A0.889,0.889,0,0,0,465.667,622.888Z" transform="translate(-311 -598)"/>
    <path id="Oval-108" data-name="Oval" class="cls-1" d="M465.667,642.443a0.889,0.889,0,1,0,.888-0.888A0.888,0.888,0,0,0,465.667,642.443Z" transform="translate(-311 -598)"/>
    <path id="Oval-109" data-name="Oval" class="cls-1" d="M465.667,662a0.889,0.889,0,1,0,.888-0.889A0.889,0.889,0,0,0,465.667,662Z" transform="translate(-311 -598)"/>
    <path id="Oval-110" data-name="Oval" class="cls-1" d="M465.667,681.555a0.889,0.889,0,1,0,.888-0.889A0.888,0.888,0,0,0,465.667,681.555Z" transform="translate(-311 -598)"/>
    <path id="Oval-111" data-name="Oval" class="cls-1" d="M465.667,701.11a0.889,0.889,0,1,0,.888-0.889A0.889,0.889,0,0,0,465.667,701.11Z" transform="translate(-311 -598)"/>
    <path id="Oval-112" data-name="Oval" class="cls-1" d="M465.667,720.666a0.889,0.889,0,1,0,.888-0.889A0.889,0.889,0,0,0,465.667,720.666Z" transform="translate(-311 -598)"/>
    <path id="Oval-113" data-name="Oval" class="cls-1" d="M465.667,740.222a0.889,0.889,0,1,0,.888-0.889A0.889,0.889,0,0,0,465.667,740.222Z" transform="translate(-311 -598)"/>
    <path id="Oval-114" data-name="Oval" class="cls-1" d="M465.667,759.777a0.889,0.889,0,1,0,.888-0.889A0.889,0.889,0,0,0,465.667,759.777Z" transform="translate(-311 -598)"/>
    <path id="Oval-115" data-name="Oval" class="cls-1" d="M465.667,779.333a0.889,0.889,0,1,0,.888-0.889A0.889,0.889,0,0,0,465.667,779.333Z" transform="translate(-311 -598)"/>
    <path id="Oval-116" data-name="Oval" class="cls-1" d="M465.667,798.888a0.889,0.889,0,1,0,.888-0.888A0.889,0.889,0,0,0,465.667,798.888Z" transform="translate(-311 -598)"/>
    <path id="Oval-117" data-name="Oval" class="cls-1" d="M465.667,818.444a0.889,0.889,0,1,0,.888-0.889A0.889,0.889,0,0,0,465.667,818.444Z" transform="translate(-311 -598)"/>
    <path id="Oval-118" data-name="Oval" class="cls-1" d="M465.667,838a0.889,0.889,0,1,0,.888-0.89A0.889,0.889,0,0,0,465.667,838Z" transform="translate(-311 -598)"/>
    <path id="Oval-119" data-name="Oval" class="cls-1" d="M465.667,857.555a0.889,0.889,0,1,0,.888-0.889A0.889,0.889,0,0,0,465.667,857.555Z" transform="translate(-311 -598)"/>
    <path id="Oval-120" data-name="Oval" class="cls-1" d="M465.667,877.11a0.889,0.889,0,1,0,.888-0.889A0.889,0.889,0,0,0,465.667,877.11Z" transform="translate(-311 -598)"/>
    <path id="Oval-121" data-name="Oval" class="cls-1" d="M447.889,603.332a0.889,0.889,0,1,0,.889-0.888A0.889,0.889,0,0,0,447.889,603.332Z" transform="translate(-311 -598)"/>
    <path id="Oval-122" data-name="Oval" class="cls-1" d="M447.889,622.888a0.889,0.889,0,1,0,.889-0.889A0.889,0.889,0,0,0,447.889,622.888Z" transform="translate(-311 -598)"/>
    <path id="Oval-123" data-name="Oval" class="cls-1" d="M447.889,642.443a0.889,0.889,0,1,0,.889-0.888A0.888,0.888,0,0,0,447.889,642.443Z" transform="translate(-311 -598)"/>
    <path id="Oval-124" data-name="Oval" class="cls-1" d="M447.889,662a0.889,0.889,0,1,0,.889-0.889A0.889,0.889,0,0,0,447.889,662Z" transform="translate(-311 -598)"/>
    <path id="Oval-125" data-name="Oval" class="cls-1" d="M447.889,681.555a0.889,0.889,0,1,0,.889-0.889A0.888,0.888,0,0,0,447.889,681.555Z" transform="translate(-311 -598)"/>
    <path id="Oval-126" data-name="Oval" class="cls-1" d="M447.889,701.11a0.889,0.889,0,1,0,.889-0.889A0.889,0.889,0,0,0,447.889,701.11Z" transform="translate(-311 -598)"/>
    <path id="Oval-127" data-name="Oval" class="cls-1" d="M447.889,720.666a0.889,0.889,0,1,0,.889-0.889A0.889,0.889,0,0,0,447.889,720.666Z" transform="translate(-311 -598)"/>
    <path id="Oval-128" data-name="Oval" class="cls-1" d="M447.889,740.222a0.889,0.889,0,1,0,.889-0.889A0.889,0.889,0,0,0,447.889,740.222Z" transform="translate(-311 -598)"/>
    <path id="Oval-129" data-name="Oval" class="cls-1" d="M447.889,759.777a0.889,0.889,0,1,0,.889-0.889A0.889,0.889,0,0,0,447.889,759.777Z" transform="translate(-311 -598)"/>
    <path id="Oval-130" data-name="Oval" class="cls-1" d="M447.889,779.333a0.889,0.889,0,1,0,.889-0.889A0.89,0.89,0,0,0,447.889,779.333Z" transform="translate(-311 -598)"/>
    <path id="Oval-131" data-name="Oval" class="cls-1" d="M447.889,798.888a0.889,0.889,0,1,0,.889-0.888A0.889,0.889,0,0,0,447.889,798.888Z" transform="translate(-311 -598)"/>
    <path id="Oval-132" data-name="Oval" class="cls-1" d="M447.889,818.444a0.889,0.889,0,1,0,.889-0.889A0.89,0.89,0,0,0,447.889,818.444Z" transform="translate(-311 -598)"/>
    <path id="Oval-133" data-name="Oval" class="cls-1" d="M447.889,838a0.889,0.889,0,1,0,.889-0.89A0.889,0.889,0,0,0,447.889,838Z" transform="translate(-311 -598)"/>
    <path id="Oval-134" data-name="Oval" class="cls-1" d="M447.889,857.555a0.889,0.889,0,1,0,.889-0.889A0.889,0.889,0,0,0,447.889,857.555Z" transform="translate(-311 -598)"/>
    <path id="Oval-135" data-name="Oval" class="cls-1" d="M447.889,877.11a0.889,0.889,0,1,0,.889-0.889A0.889,0.889,0,0,0,447.889,877.11Z" transform="translate(-311 -598)"/>
    <path id="Oval-136" data-name="Oval" class="cls-1" d="M428.333,603.332a0.889,0.889,0,1,0,.889-0.888A0.889,0.889,0,0,0,428.333,603.332Z" transform="translate(-311 -598)"/>
    <path id="Oval-137" data-name="Oval" class="cls-1" d="M428.333,622.888a0.889,0.889,0,1,0,.889-0.889A0.889,0.889,0,0,0,428.333,622.888Z" transform="translate(-311 -598)"/>
    <path id="Oval-138" data-name="Oval" class="cls-1" d="M428.333,642.443a0.889,0.889,0,1,0,.889-0.888A0.888,0.888,0,0,0,428.333,642.443Z" transform="translate(-311 -598)"/>
    <path id="Oval-139" data-name="Oval" class="cls-1" d="M428.333,662a0.889,0.889,0,1,0,.889-0.889A0.889,0.889,0,0,0,428.333,662Z" transform="translate(-311 -598)"/>
    <path id="Oval-140" data-name="Oval" class="cls-1" d="M428.333,681.555a0.889,0.889,0,1,0,.889-0.889A0.888,0.888,0,0,0,428.333,681.555Z" transform="translate(-311 -598)"/>
    <path id="Oval-141" data-name="Oval" class="cls-1" d="M428.333,701.11a0.889,0.889,0,1,0,.889-0.889A0.889,0.889,0,0,0,428.333,701.11Z" transform="translate(-311 -598)"/>
    <path id="Oval-142" data-name="Oval" class="cls-1" d="M428.333,720.666a0.889,0.889,0,1,0,.889-0.889A0.889,0.889,0,0,0,428.333,720.666Z" transform="translate(-311 -598)"/>
    <path id="Oval-143" data-name="Oval" class="cls-1" d="M428.333,740.222a0.889,0.889,0,1,0,.889-0.889A0.889,0.889,0,0,0,428.333,740.222Z" transform="translate(-311 -598)"/>
    <path id="Oval-144" data-name="Oval" class="cls-1" d="M428.333,759.777a0.889,0.889,0,1,0,.889-0.889A0.889,0.889,0,0,0,428.333,759.777Z" transform="translate(-311 -598)"/>
    <path id="Oval-145" data-name="Oval" class="cls-1" d="M428.333,779.333a0.889,0.889,0,1,0,.889-0.889A0.89,0.89,0,0,0,428.333,779.333Z" transform="translate(-311 -598)"/>
    <path id="Oval-146" data-name="Oval" class="cls-1" d="M428.333,798.888a0.889,0.889,0,1,0,.889-0.888A0.889,0.889,0,0,0,428.333,798.888Z" transform="translate(-311 -598)"/>
    <path id="Oval-147" data-name="Oval" class="cls-1" d="M428.333,818.444a0.889,0.889,0,1,0,.889-0.889A0.89,0.89,0,0,0,428.333,818.444Z" transform="translate(-311 -598)"/>
    <path id="Oval-148" data-name="Oval" class="cls-1" d="M428.333,838a0.889,0.889,0,1,0,.889-0.89A0.889,0.889,0,0,0,428.333,838Z" transform="translate(-311 -598)"/>
    <path id="Oval-149" data-name="Oval" class="cls-1" d="M428.333,857.555a0.889,0.889,0,1,0,.889-0.889A0.889,0.889,0,0,0,428.333,857.555Z" transform="translate(-311 -598)"/>
    <path id="Oval-150" data-name="Oval" class="cls-1" d="M428.333,877.11a0.889,0.889,0,1,0,.889-0.889A0.889,0.889,0,0,0,428.333,877.11Z" transform="translate(-311 -598)"/>
    <path id="Oval-151" data-name="Oval" class="cls-1" d="M408.778,603.332a0.889,0.889,0,1,0,.889-0.888A0.889,0.889,0,0,0,408.778,603.332Z" transform="translate(-311 -598)"/>
    <path id="Oval-152" data-name="Oval" class="cls-1" d="M408.778,622.888a0.889,0.889,0,1,0,.889-0.889A0.889,0.889,0,0,0,408.778,622.888Z" transform="translate(-311 -598)"/>
    <path id="Oval-153" data-name="Oval" class="cls-1" d="M408.778,642.443a0.889,0.889,0,1,0,.889-0.888A0.888,0.888,0,0,0,408.778,642.443Z" transform="translate(-311 -598)"/>
    <path id="Oval-154" data-name="Oval" class="cls-1" d="M408.778,662a0.889,0.889,0,1,0,.889-0.889A0.889,0.889,0,0,0,408.778,662Z" transform="translate(-311 -598)"/>
    <path id="Oval-155" data-name="Oval" class="cls-1" d="M408.778,681.555a0.889,0.889,0,1,0,.889-0.889A0.888,0.888,0,0,0,408.778,681.555Z" transform="translate(-311 -598)"/>
    <path id="Oval-156" data-name="Oval" class="cls-1" d="M408.778,701.11a0.889,0.889,0,1,0,.889-0.889A0.889,0.889,0,0,0,408.778,701.11Z" transform="translate(-311 -598)"/>
    <path id="Oval-157" data-name="Oval" class="cls-1" d="M408.778,720.666a0.889,0.889,0,1,0,.889-0.889A0.889,0.889,0,0,0,408.778,720.666Z" transform="translate(-311 -598)"/>
    <path id="Oval-158" data-name="Oval" class="cls-1" d="M408.778,740.222a0.889,0.889,0,1,0,.889-0.889A0.889,0.889,0,0,0,408.778,740.222Z" transform="translate(-311 -598)"/>
    <path id="Oval-159" data-name="Oval" class="cls-1" d="M408.778,759.777a0.889,0.889,0,1,0,.889-0.889A0.889,0.889,0,0,0,408.778,759.777Z" transform="translate(-311 -598)"/>
    <path id="Oval-160" data-name="Oval" class="cls-1" d="M408.778,779.333a0.889,0.889,0,1,0,.889-0.889A0.89,0.89,0,0,0,408.778,779.333Z" transform="translate(-311 -598)"/>
    <path id="Oval-161" data-name="Oval" class="cls-1" d="M408.778,798.888a0.889,0.889,0,1,0,.889-0.888A0.889,0.889,0,0,0,408.778,798.888Z" transform="translate(-311 -598)"/>
    <path id="Oval-162" data-name="Oval" class="cls-1" d="M408.778,818.444a0.889,0.889,0,1,0,.889-0.889A0.89,0.89,0,0,0,408.778,818.444Z" transform="translate(-311 -598)"/>
    <path id="Oval-163" data-name="Oval" class="cls-1" d="M408.778,838a0.889,0.889,0,1,0,.889-0.89A0.889,0.889,0,0,0,408.778,838Z" transform="translate(-311 -598)"/>
    <path id="Oval-164" data-name="Oval" class="cls-1" d="M408.778,857.555a0.889,0.889,0,1,0,.889-0.889A0.889,0.889,0,0,0,408.778,857.555Z" transform="translate(-311 -598)"/>
    <path id="Oval-165" data-name="Oval" class="cls-1" d="M408.778,877.11a0.889,0.889,0,1,0,.889-0.889A0.889,0.889,0,0,0,408.778,877.11Z" transform="translate(-311 -598)"/>
    <path id="Oval-166" data-name="Oval" class="cls-1" d="M389.222,603.332a0.889,0.889,0,1,0,.889-0.888A0.889,0.889,0,0,0,389.222,603.332Z" transform="translate(-311 -598)"/>
    <path id="Oval-167" data-name="Oval" class="cls-1" d="M389.222,622.888a0.889,0.889,0,1,0,.889-0.889A0.889,0.889,0,0,0,389.222,622.888Z" transform="translate(-311 -598)"/>
    <path id="Oval-168" data-name="Oval" class="cls-1" d="M389.222,642.443a0.889,0.889,0,1,0,.889-0.888A0.888,0.888,0,0,0,389.222,642.443Z" transform="translate(-311 -598)"/>
    <path id="Oval-169" data-name="Oval" class="cls-1" d="M389.222,662a0.889,0.889,0,1,0,.889-0.889A0.889,0.889,0,0,0,389.222,662Z" transform="translate(-311 -598)"/>
    <path id="Oval-170" data-name="Oval" class="cls-1" d="M389.222,681.555a0.889,0.889,0,1,0,.889-0.889A0.888,0.888,0,0,0,389.222,681.555Z" transform="translate(-311 -598)"/>
    <path id="Oval-171" data-name="Oval" class="cls-1" d="M389.222,701.11a0.889,0.889,0,1,0,.889-0.889A0.889,0.889,0,0,0,389.222,701.11Z" transform="translate(-311 -598)"/>
    <path id="Oval-172" data-name="Oval" class="cls-1" d="M389.222,720.666a0.889,0.889,0,1,0,.889-0.889A0.889,0.889,0,0,0,389.222,720.666Z" transform="translate(-311 -598)"/>
    <path id="Oval-173" data-name="Oval" class="cls-1" d="M389.222,740.222a0.889,0.889,0,1,0,.889-0.889A0.889,0.889,0,0,0,389.222,740.222Z" transform="translate(-311 -598)"/>
    <path id="Oval-174" data-name="Oval" class="cls-1" d="M389.222,759.777a0.889,0.889,0,1,0,.889-0.889A0.889,0.889,0,0,0,389.222,759.777Z" transform="translate(-311 -598)"/>
    <path id="Oval-175" data-name="Oval" class="cls-1" d="M389.222,779.333a0.889,0.889,0,1,0,.889-0.889A0.89,0.89,0,0,0,389.222,779.333Z" transform="translate(-311 -598)"/>
    <path id="Oval-176" data-name="Oval" class="cls-1" d="M389.222,798.888a0.889,0.889,0,1,0,.889-0.888A0.889,0.889,0,0,0,389.222,798.888Z" transform="translate(-311 -598)"/>
    <path id="Oval-177" data-name="Oval" class="cls-1" d="M389.222,818.444a0.889,0.889,0,1,0,.889-0.889A0.89,0.89,0,0,0,389.222,818.444Z" transform="translate(-311 -598)"/>
    <path id="Oval-178" data-name="Oval" class="cls-1" d="M389.222,838a0.889,0.889,0,1,0,.889-0.89A0.889,0.889,0,0,0,389.222,838Z" transform="translate(-311 -598)"/>
    <path id="Oval-179" data-name="Oval" class="cls-1" d="M389.222,857.555a0.889,0.889,0,1,0,.889-0.889A0.889,0.889,0,0,0,389.222,857.555Z" transform="translate(-311 -598)"/>
    <path id="Oval-180" data-name="Oval" class="cls-1" d="M389.222,877.11a0.889,0.889,0,1,0,.889-0.889A0.889,0.889,0,0,0,389.222,877.11Z" transform="translate(-311 -598)"/>
    <path id="Oval-181" data-name="Oval" class="cls-1" d="M369.667,603.332a0.889,0.889,0,1,0,.889-0.888A0.889,0.889,0,0,0,369.667,603.332Z" transform="translate(-311 -598)"/>
    <path id="Oval-182" data-name="Oval" class="cls-1" d="M369.667,622.888a0.889,0.889,0,1,0,.889-0.889A0.889,0.889,0,0,0,369.667,622.888Z" transform="translate(-311 -598)"/>
    <path id="Oval-183" data-name="Oval" class="cls-1" d="M369.667,642.443a0.889,0.889,0,1,0,.889-0.888A0.888,0.888,0,0,0,369.667,642.443Z" transform="translate(-311 -598)"/>
    <path id="Oval-184" data-name="Oval" class="cls-1" d="M369.667,662a0.889,0.889,0,1,0,.889-0.889A0.889,0.889,0,0,0,369.667,662Z" transform="translate(-311 -598)"/>
    <path id="Oval-185" data-name="Oval" class="cls-1" d="M369.667,681.555a0.889,0.889,0,1,0,.889-0.889A0.888,0.888,0,0,0,369.667,681.555Z" transform="translate(-311 -598)"/>
    <path id="Oval-186" data-name="Oval" class="cls-1" d="M369.667,701.11a0.889,0.889,0,1,0,.889-0.889A0.889,0.889,0,0,0,369.667,701.11Z" transform="translate(-311 -598)"/>
    <path id="Oval-187" data-name="Oval" class="cls-1" d="M369.667,720.666a0.889,0.889,0,1,0,.889-0.889A0.889,0.889,0,0,0,369.667,720.666Z" transform="translate(-311 -598)"/>
    <path id="Oval-188" data-name="Oval" class="cls-1" d="M369.667,740.222a0.889,0.889,0,1,0,.889-0.889A0.889,0.889,0,0,0,369.667,740.222Z" transform="translate(-311 -598)"/>
    <path id="Oval-189" data-name="Oval" class="cls-1" d="M369.667,759.777a0.889,0.889,0,1,0,.889-0.889A0.889,0.889,0,0,0,369.667,759.777Z" transform="translate(-311 -598)"/>
    <path id="Oval-190" data-name="Oval" class="cls-1" d="M369.667,779.333a0.889,0.889,0,1,0,.889-0.889A0.89,0.89,0,0,0,369.667,779.333Z" transform="translate(-311 -598)"/>
    <path id="Oval-191" data-name="Oval" class="cls-1" d="M369.667,798.888a0.889,0.889,0,1,0,.889-0.888A0.889,0.889,0,0,0,369.667,798.888Z" transform="translate(-311 -598)"/>
    <path id="Oval-192" data-name="Oval" class="cls-1" d="M369.667,818.444a0.889,0.889,0,1,0,.889-0.889A0.89,0.89,0,0,0,369.667,818.444Z" transform="translate(-311 -598)"/>
    <path id="Oval-193" data-name="Oval" class="cls-1" d="M369.667,838a0.889,0.889,0,1,0,.889-0.89A0.889,0.889,0,0,0,369.667,838Z" transform="translate(-311 -598)"/>
    <path id="Oval-194" data-name="Oval" class="cls-1" d="M369.667,857.555a0.889,0.889,0,1,0,.889-0.889A0.889,0.889,0,0,0,369.667,857.555Z" transform="translate(-311 -598)"/>
    <path id="Oval-195" data-name="Oval" class="cls-1" d="M369.667,877.11a0.889,0.889,0,1,0,.889-0.889A0.889,0.889,0,0,0,369.667,877.11Z" transform="translate(-311 -598)"/>
    <path id="Oval-196" data-name="Oval" class="cls-1" d="M350.111,603.332a0.889,0.889,0,1,0,.889-0.888A0.889,0.889,0,0,0,350.111,603.332Z" transform="translate(-311 -598)"/>
    <path id="Oval-197" data-name="Oval" class="cls-1" d="M350.111,622.888A0.889,0.889,0,1,0,351,622,0.889,0.889,0,0,0,350.111,622.888Z" transform="translate(-311 -598)"/>
    <path id="Oval-198" data-name="Oval" class="cls-1" d="M350.111,642.443a0.889,0.889,0,1,0,.889-0.888A0.888,0.888,0,0,0,350.111,642.443Z" transform="translate(-311 -598)"/>
    <path id="Oval-199" data-name="Oval" class="cls-1" d="M350.111,662A0.889,0.889,0,1,0,351,661.11,0.889,0.889,0,0,0,350.111,662Z" transform="translate(-311 -598)"/>
    <path id="Oval-200" data-name="Oval" class="cls-1" d="M350.111,681.555a0.889,0.889,0,1,0,.889-0.889A0.888,0.888,0,0,0,350.111,681.555Z" transform="translate(-311 -598)"/>
    <path id="Oval-201" data-name="Oval" class="cls-1" d="M350.111,701.11a0.889,0.889,0,1,0,.889-0.889A0.889,0.889,0,0,0,350.111,701.11Z" transform="translate(-311 -598)"/>
    <path id="Oval-202" data-name="Oval" class="cls-1" d="M350.111,720.666a0.889,0.889,0,1,0,.889-0.889A0.889,0.889,0,0,0,350.111,720.666Z" transform="translate(-311 -598)"/>
    <path id="Oval-203" data-name="Oval" class="cls-1" d="M350.111,740.222a0.889,0.889,0,1,0,.889-0.889A0.889,0.889,0,0,0,350.111,740.222Z" transform="translate(-311 -598)"/>
    <path id="Oval-204" data-name="Oval" class="cls-1" d="M350.111,759.777a0.889,0.889,0,1,0,.889-0.889A0.889,0.889,0,0,0,350.111,759.777Z" transform="translate(-311 -598)"/>
    <path id="Oval-205" data-name="Oval" class="cls-1" d="M350.111,779.333a0.889,0.889,0,1,0,.889-0.889A0.89,0.89,0,0,0,350.111,779.333Z" transform="translate(-311 -598)"/>
    <path id="Oval-206" data-name="Oval" class="cls-1" d="M350.111,798.888A0.889,0.889,0,1,0,351,798,0.889,0.889,0,0,0,350.111,798.888Z" transform="translate(-311 -598)"/>
    <path id="Oval-207" data-name="Oval" class="cls-1" d="M350.111,818.444a0.889,0.889,0,1,0,.889-0.889A0.89,0.89,0,0,0,350.111,818.444Z" transform="translate(-311 -598)"/>
    <path id="Oval-208" data-name="Oval" class="cls-1" d="M350.111,838a0.889,0.889,0,1,0,.889-0.89A0.889,0.889,0,0,0,350.111,838Z" transform="translate(-311 -598)"/>
    <path id="Oval-209" data-name="Oval" class="cls-1" d="M350.111,857.555a0.889,0.889,0,1,0,.889-0.889A0.889,0.889,0,0,0,350.111,857.555Z" transform="translate(-311 -598)"/>
    <path id="Oval-210" data-name="Oval" class="cls-1" d="M350.111,877.11a0.889,0.889,0,1,0,.889-0.889A0.889,0.889,0,0,0,350.111,877.11Z" transform="translate(-311 -598)"/>
    <path id="Oval-211" data-name="Oval" class="cls-1" d="M330.556,603.332a0.889,0.889,0,1,0,.888-0.888A0.889,0.889,0,0,0,330.556,603.332Z" transform="translate(-311 -598)"/>
    <path id="Oval-212" data-name="Oval" class="cls-1" d="M330.556,622.888a0.889,0.889,0,1,0,.888-0.889A0.889,0.889,0,0,0,330.556,622.888Z" transform="translate(-311 -598)"/>
    <path id="Oval-213" data-name="Oval" class="cls-1" d="M330.556,642.443a0.889,0.889,0,1,0,.888-0.888A0.888,0.888,0,0,0,330.556,642.443Z" transform="translate(-311 -598)"/>
    <path id="Oval-214" data-name="Oval" class="cls-1" d="M330.556,662a0.889,0.889,0,1,0,.888-0.889A0.889,0.889,0,0,0,330.556,662Z" transform="translate(-311 -598)"/>
    <path id="Oval-215" data-name="Oval" class="cls-1" d="M330.556,681.555a0.889,0.889,0,1,0,.888-0.889A0.888,0.888,0,0,0,330.556,681.555Z" transform="translate(-311 -598)"/>
    <path id="Oval-216" data-name="Oval" class="cls-1" d="M330.556,701.11a0.889,0.889,0,1,0,.888-0.889A0.889,0.889,0,0,0,330.556,701.11Z" transform="translate(-311 -598)"/>
    <path id="Oval-217" data-name="Oval" class="cls-1" d="M330.556,720.666a0.889,0.889,0,1,0,.888-0.889A0.889,0.889,0,0,0,330.556,720.666Z" transform="translate(-311 -598)"/>
    <path id="Oval-218" data-name="Oval" class="cls-1" d="M330.556,740.222a0.889,0.889,0,1,0,.888-0.889A0.889,0.889,0,0,0,330.556,740.222Z" transform="translate(-311 -598)"/>
    <path id="Oval-219" data-name="Oval" class="cls-1" d="M330.556,759.777a0.889,0.889,0,1,0,.888-0.889A0.889,0.889,0,0,0,330.556,759.777Z" transform="translate(-311 -598)"/>
    <path id="Oval-220" data-name="Oval" class="cls-1" d="M330.556,779.333a0.889,0.889,0,1,0,.888-0.889A0.889,0.889,0,0,0,330.556,779.333Z" transform="translate(-311 -598)"/>
    <path id="Oval-221" data-name="Oval" class="cls-1" d="M330.556,798.888a0.889,0.889,0,1,0,.888-0.888A0.889,0.889,0,0,0,330.556,798.888Z" transform="translate(-311 -598)"/>
    <path id="Oval-222" data-name="Oval" class="cls-1" d="M330.556,818.444a0.889,0.889,0,1,0,.888-0.889A0.889,0.889,0,0,0,330.556,818.444Z" transform="translate(-311 -598)"/>
    <path id="Oval-223" data-name="Oval" class="cls-1" d="M330.556,838a0.889,0.889,0,1,0,.888-0.89A0.889,0.889,0,0,0,330.556,838Z" transform="translate(-311 -598)"/>
    <path id="Oval-224" data-name="Oval" class="cls-1" d="M330.556,857.555a0.889,0.889,0,1,0,.888-0.889A0.889,0.889,0,0,0,330.556,857.555Z" transform="translate(-311 -598)"/>
    <path id="Oval-225" data-name="Oval" class="cls-1" d="M330.556,877.11a0.889,0.889,0,1,0,.888-0.889A0.889,0.889,0,0,0,330.556,877.11Z" transform="translate(-311 -598)"/>
    <path id="Oval-226" data-name="Oval" class="cls-1" d="M311,603.332a0.889,0.889,0,1,0,.889-0.888A0.889,0.889,0,0,0,311,603.332Z" transform="translate(-311 -598)"/>
    <path id="Oval-227" data-name="Oval" class="cls-1" d="M311,622.888a0.889,0.889,0,1,0,.889-0.889A0.889,0.889,0,0,0,311,622.888Z" transform="translate(-311 -598)"/>
    <path id="Oval-228" data-name="Oval" class="cls-1" d="M311,642.443a0.889,0.889,0,1,0,.889-0.888A0.888,0.888,0,0,0,311,642.443Z" transform="translate(-311 -598)"/>
    <path id="Oval-229" data-name="Oval" class="cls-1" d="M311,662a0.889,0.889,0,1,0,.889-0.889A0.889,0.889,0,0,0,311,662Z" transform="translate(-311 -598)"/>
    <path id="Oval-230" data-name="Oval" class="cls-1" d="M311,681.555a0.889,0.889,0,1,0,.889-0.889A0.888,0.888,0,0,0,311,681.555Z" transform="translate(-311 -598)"/>
    <path id="Oval-231" data-name="Oval" class="cls-1" d="M311,701.11a0.889,0.889,0,1,0,.889-0.889A0.889,0.889,0,0,0,311,701.11Z" transform="translate(-311 -598)"/>
    <path id="Oval-232" data-name="Oval" class="cls-1" d="M311,720.666a0.889,0.889,0,1,0,.889-0.889A0.889,0.889,0,0,0,311,720.666Z" transform="translate(-311 -598)"/>
    <path id="Oval-233" data-name="Oval" class="cls-1" d="M311,740.222a0.889,0.889,0,1,0,.889-0.889A0.889,0.889,0,0,0,311,740.222Z" transform="translate(-311 -598)"/>
    <path id="Oval-234" data-name="Oval" class="cls-1" d="M311,759.777a0.889,0.889,0,1,0,.889-0.889A0.889,0.889,0,0,0,311,759.777Z" transform="translate(-311 -598)"/>
    <path id="Oval-235" data-name="Oval" class="cls-1" d="M311,779.333a0.889,0.889,0,1,0,.889-0.889A0.89,0.89,0,0,0,311,779.333Z" transform="translate(-311 -598)"/>
    <path id="Oval-236" data-name="Oval" class="cls-1" d="M311,798.888a0.889,0.889,0,1,0,.889-0.888A0.889,0.889,0,0,0,311,798.888Z" transform="translate(-311 -598)"/>
    <path id="Oval-237" data-name="Oval" class="cls-1" d="M311,818.444a0.889,0.889,0,1,0,.889-0.889A0.89,0.89,0,0,0,311,818.444Z" transform="translate(-311 -598)"/>
    <path id="Oval-238" data-name="Oval" class="cls-1" d="M311,838a0.889,0.889,0,1,0,.889-0.89A0.889,0.889,0,0,0,311,838Z" transform="translate(-311 -598)"/>
    <path id="Oval-239" data-name="Oval" class="cls-1" d="M311,857.555a0.889,0.889,0,1,0,.889-0.889A0.889,0.889,0,0,0,311,857.555Z" transform="translate(-311 -598)"/>
    <path id="Oval-240" data-name="Oval" class="cls-1" d="M311,877.11a0.889,0.889,0,1,0,.889-0.889A0.889,0.889,0,0,0,311,877.11Z" transform="translate(-311 -598)"/>
    <path id="Oval-241" data-name="Oval" class="cls-1" d="M757.222,598.888a0.889,0.889,0,1,0,.889-0.889A0.889,0.889,0,0,0,757.222,598.888Z" transform="translate(-311 -598)"/>
    <path id="Oval-242" data-name="Oval" class="cls-1" d="M757.222,618.444a0.889,0.889,0,1,0,.889-0.889A0.89,0.89,0,0,0,757.222,618.444Z" transform="translate(-311 -598)"/>
    <path id="Oval-243" data-name="Oval" class="cls-1" d="M757.222,638a0.889,0.889,0,1,0,.889-0.888A0.889,0.889,0,0,0,757.222,638Z" transform="translate(-311 -598)"/>
    <path id="Oval-244" data-name="Oval" class="cls-1" d="M757.222,657.555a0.889,0.889,0,1,0,.889-0.889A0.89,0.89,0,0,0,757.222,657.555Z" transform="translate(-311 -598)"/>
    <path id="Oval-245" data-name="Oval" class="cls-1" d="M757.222,677.111a0.889,0.889,0,1,0,.889-0.889A0.889,0.889,0,0,0,757.222,677.111Z" transform="translate(-311 -598)"/>
    <path id="Oval-246" data-name="Oval" class="cls-1" d="M757.222,696.666a0.889,0.889,0,1,0,.889-0.889A0.889,0.889,0,0,0,757.222,696.666Z" transform="translate(-311 -598)"/>
    <path id="Oval-247" data-name="Oval" class="cls-1" d="M757.222,716.222a0.889,0.889,0,1,0,.889-0.889A0.89,0.89,0,0,0,757.222,716.222Z" transform="translate(-311 -598)"/>
    <path id="Oval-248" data-name="Oval" class="cls-1" d="M757.222,735.777a0.889,0.889,0,1,0,.889-0.889A0.889,0.889,0,0,0,757.222,735.777Z" transform="translate(-311 -598)"/>
    <path id="Oval-249" data-name="Oval" class="cls-1" d="M757.222,755.333a0.889,0.889,0,1,0,.889-0.889A0.889,0.889,0,0,0,757.222,755.333Z" transform="translate(-311 -598)"/>
    <path id="Oval-250" data-name="Oval" class="cls-1" d="M757.222,774.888a0.889,0.889,0,1,0,.889-0.889A0.889,0.889,0,0,0,757.222,774.888Z" transform="translate(-311 -598)"/>
    <path id="Oval-251" data-name="Oval" class="cls-1" d="M757.222,794.444a0.889,0.889,0,1,0,.889-0.889A0.888,0.888,0,0,0,757.222,794.444Z" transform="translate(-311 -598)"/>
    <path id="Oval-252" data-name="Oval" class="cls-1" d="M757.222,814a0.889,0.889,0,1,0,.889-0.889A0.889,0.889,0,0,0,757.222,814Z" transform="translate(-311 -598)"/>
    <path id="Oval-253" data-name="Oval" class="cls-1" d="M757.222,833.555a0.889,0.889,0,1,0,.889-0.889A0.888,0.888,0,0,0,757.222,833.555Z" transform="translate(-311 -598)"/>
    <path id="Oval-254" data-name="Oval" class="cls-1" d="M757.222,853.11a0.889,0.889,0,1,0,.889-0.889A0.888,0.888,0,0,0,757.222,853.11Z" transform="translate(-311 -598)"/>
    <path id="Oval-255" data-name="Oval" class="cls-1" d="M757.222,872.666a0.889,0.889,0,1,0,.889-0.889A0.889,0.889,0,0,0,757.222,872.666Z" transform="translate(-311 -598)"/>
    <path id="Oval-256" data-name="Oval" class="cls-1" d="M737.667,603.332a0.889,0.889,0,1,0,.888-0.888A0.889,0.889,0,0,0,737.667,603.332Z" transform="translate(-311 -598)"/>
    <path id="Oval-257" data-name="Oval" class="cls-1" d="M737.667,622.888a0.889,0.889,0,1,0,.888-0.889A0.889,0.889,0,0,0,737.667,622.888Z" transform="translate(-311 -598)"/>
    <path id="Oval-258" data-name="Oval" class="cls-1" d="M737.667,642.443a0.889,0.889,0,1,0,.888-0.888A0.888,0.888,0,0,0,737.667,642.443Z" transform="translate(-311 -598)"/>
    <path id="Oval-259" data-name="Oval" class="cls-1" d="M737.667,662a0.889,0.889,0,1,0,.888-0.889A0.889,0.889,0,0,0,737.667,662Z" transform="translate(-311 -598)"/>
    <path id="Oval-260" data-name="Oval" class="cls-1" d="M737.667,681.555a0.889,0.889,0,1,0,.888-0.889A0.888,0.888,0,0,0,737.667,681.555Z" transform="translate(-311 -598)"/>
    <path id="Oval-261" data-name="Oval" class="cls-1" d="M737.667,701.11a0.889,0.889,0,1,0,.888-0.889A0.889,0.889,0,0,0,737.667,701.11Z" transform="translate(-311 -598)"/>
    <path id="Oval-262" data-name="Oval" class="cls-1" d="M737.667,720.666a0.889,0.889,0,1,0,.888-0.889A0.889,0.889,0,0,0,737.667,720.666Z" transform="translate(-311 -598)"/>
    <path id="Oval-263" data-name="Oval" class="cls-1" d="M737.667,740.222a0.889,0.889,0,1,0,.888-0.889A0.889,0.889,0,0,0,737.667,740.222Z" transform="translate(-311 -598)"/>
    <path id="Oval-264" data-name="Oval" class="cls-1" d="M737.667,759.777a0.889,0.889,0,1,0,.888-0.889A0.889,0.889,0,0,0,737.667,759.777Z" transform="translate(-311 -598)"/>
    <path id="Oval-265" data-name="Oval" class="cls-1" d="M737.667,779.333a0.889,0.889,0,1,0,.888-0.889A0.889,0.889,0,0,0,737.667,779.333Z" transform="translate(-311 -598)"/>
    <path id="Oval-266" data-name="Oval" class="cls-1" d="M737.667,798.888a0.889,0.889,0,1,0,.888-0.888A0.889,0.889,0,0,0,737.667,798.888Z" transform="translate(-311 -598)"/>
    <path id="Oval-267" data-name="Oval" class="cls-1" d="M737.667,818.444a0.889,0.889,0,1,0,.888-0.889A0.889,0.889,0,0,0,737.667,818.444Z" transform="translate(-311 -598)"/>
    <path id="Oval-268" data-name="Oval" class="cls-1" d="M737.667,838a0.889,0.889,0,1,0,.888-0.89A0.889,0.889,0,0,0,737.667,838Z" transform="translate(-311 -598)"/>
    <path id="Oval-269" data-name="Oval" class="cls-1" d="M737.667,857.555a0.889,0.889,0,1,0,.888-0.889A0.889,0.889,0,0,0,737.667,857.555Z" transform="translate(-311 -598)"/>
    <path id="Oval-270" data-name="Oval" class="cls-1" d="M737.667,877.11a0.889,0.889,0,1,0,.888-0.889A0.889,0.889,0,0,0,737.667,877.11Z" transform="translate(-311 -598)"/>
    <path id="Oval-271" data-name="Oval" class="cls-1" d="M718.111,603.332a0.889,0.889,0,1,0,.889-0.888A0.889,0.889,0,0,0,718.111,603.332Z" transform="translate(-311 -598)"/>
    <path id="Oval-272" data-name="Oval" class="cls-1" d="M718.111,622.888A0.889,0.889,0,1,0,719,622,0.889,0.889,0,0,0,718.111,622.888Z" transform="translate(-311 -598)"/>
    <path id="Oval-273" data-name="Oval" class="cls-1" d="M718.111,642.443a0.889,0.889,0,1,0,.889-0.888A0.888,0.888,0,0,0,718.111,642.443Z" transform="translate(-311 -598)"/>
    <path id="Oval-274" data-name="Oval" class="cls-1" d="M718.111,662A0.889,0.889,0,1,0,719,661.11,0.889,0.889,0,0,0,718.111,662Z" transform="translate(-311 -598)"/>
    <path id="Oval-275" data-name="Oval" class="cls-1" d="M718.111,681.555a0.889,0.889,0,1,0,.889-0.889A0.888,0.888,0,0,0,718.111,681.555Z" transform="translate(-311 -598)"/>
    <path id="Oval-276" data-name="Oval" class="cls-1" d="M718.111,701.11a0.889,0.889,0,1,0,.889-0.889A0.889,0.889,0,0,0,718.111,701.11Z" transform="translate(-311 -598)"/>
    <path id="Oval-277" data-name="Oval" class="cls-1" d="M718.111,720.666a0.889,0.889,0,1,0,.889-0.889A0.889,0.889,0,0,0,718.111,720.666Z" transform="translate(-311 -598)"/>
    <path id="Oval-278" data-name="Oval" class="cls-1" d="M718.111,740.222a0.889,0.889,0,1,0,.889-0.889A0.889,0.889,0,0,0,718.111,740.222Z" transform="translate(-311 -598)"/>
    <path id="Oval-279" data-name="Oval" class="cls-1" d="M718.111,759.777a0.889,0.889,0,1,0,.889-0.889A0.889,0.889,0,0,0,718.111,759.777Z" transform="translate(-311 -598)"/>
    <path id="Oval-280" data-name="Oval" class="cls-1" d="M718.111,779.333a0.889,0.889,0,1,0,.889-0.889A0.89,0.89,0,0,0,718.111,779.333Z" transform="translate(-311 -598)"/>
    <path id="Oval-281" data-name="Oval" class="cls-1" d="M718.111,798.888A0.889,0.889,0,1,0,719,798,0.889,0.889,0,0,0,718.111,798.888Z" transform="translate(-311 -598)"/>
    <path id="Oval-282" data-name="Oval" class="cls-1" d="M718.111,818.444a0.889,0.889,0,1,0,.889-0.889A0.89,0.89,0,0,0,718.111,818.444Z" transform="translate(-311 -598)"/>
    <path id="Oval-283" data-name="Oval" class="cls-1" d="M718.111,838a0.889,0.889,0,1,0,.889-0.89A0.889,0.889,0,0,0,718.111,838Z" transform="translate(-311 -598)"/>
    <path id="Oval-284" data-name="Oval" class="cls-1" d="M718.111,857.555a0.889,0.889,0,1,0,.889-0.889A0.889,0.889,0,0,0,718.111,857.555Z" transform="translate(-311 -598)"/>
    <path id="Oval-285" data-name="Oval" class="cls-1" d="M718.111,877.11a0.889,0.889,0,1,0,.889-0.889A0.889,0.889,0,0,0,718.111,877.11Z" transform="translate(-311 -598)"/>
    <path id="Oval-286" data-name="Oval" class="cls-1" d="M698.555,603.332a0.889,0.889,0,1,0,.889-0.888A0.889,0.889,0,0,0,698.555,603.332Z" transform="translate(-311 -598)"/>
    <path id="Oval-287" data-name="Oval" class="cls-1" d="M698.555,622.888a0.889,0.889,0,1,0,.889-0.889A0.889,0.889,0,0,0,698.555,622.888Z" transform="translate(-311 -598)"/>
    <path id="Oval-288" data-name="Oval" class="cls-1" d="M698.555,642.443a0.889,0.889,0,1,0,.889-0.888A0.888,0.888,0,0,0,698.555,642.443Z" transform="translate(-311 -598)"/>
    <path id="Oval-289" data-name="Oval" class="cls-1" d="M698.555,662a0.889,0.889,0,1,0,.889-0.889A0.889,0.889,0,0,0,698.555,662Z" transform="translate(-311 -598)"/>
    <path id="Oval-290" data-name="Oval" class="cls-1" d="M698.555,681.555a0.889,0.889,0,1,0,.889-0.889A0.888,0.888,0,0,0,698.555,681.555Z" transform="translate(-311 -598)"/>
    <path id="Oval-291" data-name="Oval" class="cls-1" d="M698.555,701.11a0.889,0.889,0,1,0,.889-0.889A0.889,0.889,0,0,0,698.555,701.11Z" transform="translate(-311 -598)"/>
    <path id="Oval-292" data-name="Oval" class="cls-1" d="M698.555,720.666a0.889,0.889,0,1,0,.889-0.889A0.889,0.889,0,0,0,698.555,720.666Z" transform="translate(-311 -598)"/>
    <path id="Oval-293" data-name="Oval" class="cls-1" d="M698.555,740.222a0.889,0.889,0,1,0,.889-0.889A0.889,0.889,0,0,0,698.555,740.222Z" transform="translate(-311 -598)"/>
    <path id="Oval-294" data-name="Oval" class="cls-1" d="M698.555,759.777a0.889,0.889,0,1,0,.889-0.889A0.889,0.889,0,0,0,698.555,759.777Z" transform="translate(-311 -598)"/>
    <path id="Oval-295" data-name="Oval" class="cls-1" d="M698.555,779.333a0.889,0.889,0,1,0,.889-0.889A0.89,0.89,0,0,0,698.555,779.333Z" transform="translate(-311 -598)"/>
    <path id="Oval-296" data-name="Oval" class="cls-1" d="M698.555,798.888a0.889,0.889,0,1,0,.889-0.888A0.889,0.889,0,0,0,698.555,798.888Z" transform="translate(-311 -598)"/>
    <path id="Oval-297" data-name="Oval" class="cls-1" d="M698.555,818.444a0.889,0.889,0,1,0,.889-0.889A0.89,0.89,0,0,0,698.555,818.444Z" transform="translate(-311 -598)"/>
    <path id="Oval-298" data-name="Oval" class="cls-1" d="M698.555,838a0.889,0.889,0,1,0,.889-0.89A0.889,0.889,0,0,0,698.555,838Z" transform="translate(-311 -598)"/>
    <path id="Oval-299" data-name="Oval" class="cls-1" d="M698.555,857.555a0.889,0.889,0,1,0,.889-0.889A0.889,0.889,0,0,0,698.555,857.555Z" transform="translate(-311 -598)"/>
    <path id="Oval-300" data-name="Oval" class="cls-1" d="M698.555,877.11a0.889,0.889,0,1,0,.889-0.889A0.889,0.889,0,0,0,698.555,877.11Z" transform="translate(-311 -598)"/>
    <path id="Oval-301" data-name="Oval" class="cls-1" d="M679,603.332a0.889,0.889,0,1,0,.889-0.888A0.889,0.889,0,0,0,679,603.332Z" transform="translate(-311 -598)"/>
    <path id="Oval-302" data-name="Oval" class="cls-1" d="M679,622.888a0.889,0.889,0,1,0,.889-0.889A0.889,0.889,0,0,0,679,622.888Z" transform="translate(-311 -598)"/>
    <path id="Oval-303" data-name="Oval" class="cls-1" d="M679,642.443a0.889,0.889,0,1,0,.889-0.888A0.888,0.888,0,0,0,679,642.443Z" transform="translate(-311 -598)"/>
    <path id="Oval-304" data-name="Oval" class="cls-1" d="M679,662a0.889,0.889,0,1,0,.889-0.889A0.889,0.889,0,0,0,679,662Z" transform="translate(-311 -598)"/>
    <path id="Oval-305" data-name="Oval" class="cls-1" d="M679,681.555a0.889,0.889,0,1,0,.889-0.889A0.888,0.888,0,0,0,679,681.555Z" transform="translate(-311 -598)"/>
    <path id="Oval-306" data-name="Oval" class="cls-1" d="M679,701.11a0.889,0.889,0,1,0,.889-0.889A0.889,0.889,0,0,0,679,701.11Z" transform="translate(-311 -598)"/>
    <path id="Oval-307" data-name="Oval" class="cls-1" d="M679,720.666a0.889,0.889,0,1,0,.889-0.889A0.889,0.889,0,0,0,679,720.666Z" transform="translate(-311 -598)"/>
    <path id="Oval-308" data-name="Oval" class="cls-1" d="M679,740.222a0.889,0.889,0,1,0,.889-0.889A0.889,0.889,0,0,0,679,740.222Z" transform="translate(-311 -598)"/>
    <path id="Oval-309" data-name="Oval" class="cls-1" d="M679,759.777a0.889,0.889,0,1,0,.889-0.889A0.889,0.889,0,0,0,679,759.777Z" transform="translate(-311 -598)"/>
    <path id="Oval-310" data-name="Oval" class="cls-1" d="M679,779.333a0.889,0.889,0,1,0,.889-0.889A0.89,0.89,0,0,0,679,779.333Z" transform="translate(-311 -598)"/>
    <path id="Oval-311" data-name="Oval" class="cls-1" d="M679,798.888a0.889,0.889,0,1,0,.889-0.888A0.889,0.889,0,0,0,679,798.888Z" transform="translate(-311 -598)"/>
    <path id="Oval-312" data-name="Oval" class="cls-1" d="M679,818.444a0.889,0.889,0,1,0,.889-0.889A0.89,0.89,0,0,0,679,818.444Z" transform="translate(-311 -598)"/>
    <path id="Oval-313" data-name="Oval" class="cls-1" d="M679,838a0.889,0.889,0,1,0,.889-0.89A0.889,0.889,0,0,0,679,838Z" transform="translate(-311 -598)"/>
    <path id="Oval-314" data-name="Oval" class="cls-1" d="M679,857.555a0.889,0.889,0,1,0,.889-0.889A0.889,0.889,0,0,0,679,857.555Z" transform="translate(-311 -598)"/>
    <path id="Oval-315" data-name="Oval" class="cls-1" d="M679,877.11a0.889,0.889,0,1,0,.889-0.889A0.889,0.889,0,0,0,679,877.11Z" transform="translate(-311 -598)"/>
    <path id="Oval-316" data-name="Oval" class="cls-1" d="M659.444,603.332a0.889,0.889,0,1,0,.889-0.888A0.889,0.889,0,0,0,659.444,603.332Z" transform="translate(-311 -598)"/>
    <path id="Oval-317" data-name="Oval" class="cls-1" d="M659.444,622.888a0.889,0.889,0,1,0,.889-0.889A0.889,0.889,0,0,0,659.444,622.888Z" transform="translate(-311 -598)"/>
    <path id="Oval-318" data-name="Oval" class="cls-1" d="M659.444,642.443a0.889,0.889,0,1,0,.889-0.888A0.888,0.888,0,0,0,659.444,642.443Z" transform="translate(-311 -598)"/>
    <path id="Oval-319" data-name="Oval" class="cls-1" d="M659.444,662a0.889,0.889,0,1,0,.889-0.889A0.889,0.889,0,0,0,659.444,662Z" transform="translate(-311 -598)"/>
    <path id="Oval-320" data-name="Oval" class="cls-1" d="M659.444,681.555a0.889,0.889,0,1,0,.889-0.889A0.888,0.888,0,0,0,659.444,681.555Z" transform="translate(-311 -598)"/>
    <path id="Oval-321" data-name="Oval" class="cls-1" d="M659.444,701.11a0.889,0.889,0,1,0,.889-0.889A0.889,0.889,0,0,0,659.444,701.11Z" transform="translate(-311 -598)"/>
    <path id="Oval-322" data-name="Oval" class="cls-1" d="M659.444,720.666a0.889,0.889,0,1,0,.889-0.889A0.889,0.889,0,0,0,659.444,720.666Z" transform="translate(-311 -598)"/>
    <path id="Oval-323" data-name="Oval" class="cls-1" d="M659.444,740.222a0.889,0.889,0,1,0,.889-0.889A0.889,0.889,0,0,0,659.444,740.222Z" transform="translate(-311 -598)"/>
    <path id="Oval-324" data-name="Oval" class="cls-1" d="M659.444,759.777a0.889,0.889,0,1,0,.889-0.889A0.889,0.889,0,0,0,659.444,759.777Z" transform="translate(-311 -598)"/>
    <path id="Oval-325" data-name="Oval" class="cls-1" d="M659.444,779.333a0.889,0.889,0,1,0,.889-0.889A0.89,0.89,0,0,0,659.444,779.333Z" transform="translate(-311 -598)"/>
    <path id="Oval-326" data-name="Oval" class="cls-1" d="M659.444,798.888a0.889,0.889,0,1,0,.889-0.888A0.889,0.889,0,0,0,659.444,798.888Z" transform="translate(-311 -598)"/>
    <path id="Oval-327" data-name="Oval" class="cls-1" d="M659.444,818.444a0.889,0.889,0,1,0,.889-0.889A0.89,0.89,0,0,0,659.444,818.444Z" transform="translate(-311 -598)"/>
    <path id="Oval-328" data-name="Oval" class="cls-1" d="M659.444,838a0.889,0.889,0,1,0,.889-0.89A0.889,0.889,0,0,0,659.444,838Z" transform="translate(-311 -598)"/>
    <path id="Oval-329" data-name="Oval" class="cls-1" d="M659.444,857.555a0.889,0.889,0,1,0,.889-0.889A0.889,0.889,0,0,0,659.444,857.555Z" transform="translate(-311 -598)"/>
    <path id="Oval-330" data-name="Oval" class="cls-1" d="M659.444,877.11a0.889,0.889,0,1,0,.889-0.889A0.889,0.889,0,0,0,659.444,877.11Z" transform="translate(-311 -598)"/>
    <path id="Oval-331" data-name="Oval" class="cls-1" d="M639.889,603.332a0.889,0.889,0,1,0,.889-0.888A0.889,0.889,0,0,0,639.889,603.332Z" transform="translate(-311 -598)"/>
    <path id="Oval-332" data-name="Oval" class="cls-1" d="M639.889,622.888a0.889,0.889,0,1,0,.889-0.889A0.889,0.889,0,0,0,639.889,622.888Z" transform="translate(-311 -598)"/>
    <path id="Oval-333" data-name="Oval" class="cls-1" d="M639.889,642.443a0.889,0.889,0,1,0,.889-0.888A0.888,0.888,0,0,0,639.889,642.443Z" transform="translate(-311 -598)"/>
    <path id="Oval-334" data-name="Oval" class="cls-1" d="M639.889,662a0.889,0.889,0,1,0,.889-0.889A0.889,0.889,0,0,0,639.889,662Z" transform="translate(-311 -598)"/>
    <path id="Oval-335" data-name="Oval" class="cls-1" d="M639.889,681.555a0.889,0.889,0,1,0,.889-0.889A0.888,0.888,0,0,0,639.889,681.555Z" transform="translate(-311 -598)"/>
    <path id="Oval-336" data-name="Oval" class="cls-1" d="M639.889,701.11a0.889,0.889,0,1,0,.889-0.889A0.889,0.889,0,0,0,639.889,701.11Z" transform="translate(-311 -598)"/>
    <path id="Oval-337" data-name="Oval" class="cls-1" d="M639.889,720.666a0.889,0.889,0,1,0,.889-0.889A0.889,0.889,0,0,0,639.889,720.666Z" transform="translate(-311 -598)"/>
    <path id="Oval-338" data-name="Oval" class="cls-1" d="M639.889,740.222a0.889,0.889,0,1,0,.889-0.889A0.889,0.889,0,0,0,639.889,740.222Z" transform="translate(-311 -598)"/>
    <path id="Oval-339" data-name="Oval" class="cls-1" d="M639.889,759.777a0.889,0.889,0,1,0,.889-0.889A0.889,0.889,0,0,0,639.889,759.777Z" transform="translate(-311 -598)"/>
    <path id="Oval-340" data-name="Oval" class="cls-1" d="M639.889,779.333a0.889,0.889,0,1,0,.889-0.889A0.89,0.89,0,0,0,639.889,779.333Z" transform="translate(-311 -598)"/>
    <path id="Oval-341" data-name="Oval" class="cls-1" d="M639.889,798.888a0.889,0.889,0,1,0,.889-0.888A0.889,0.889,0,0,0,639.889,798.888Z" transform="translate(-311 -598)"/>
    <path id="Oval-342" data-name="Oval" class="cls-1" d="M639.889,818.444a0.889,0.889,0,1,0,.889-0.889A0.89,0.89,0,0,0,639.889,818.444Z" transform="translate(-311 -598)"/>
    <path id="Oval-343" data-name="Oval" class="cls-1" d="M639.889,838a0.889,0.889,0,1,0,.889-0.89A0.889,0.889,0,0,0,639.889,838Z" transform="translate(-311 -598)"/>
    <path id="Oval-344" data-name="Oval" class="cls-1" d="M639.889,857.555a0.889,0.889,0,1,0,.889-0.889A0.889,0.889,0,0,0,639.889,857.555Z" transform="translate(-311 -598)"/>
    <path id="Oval-345" data-name="Oval" class="cls-1" d="M639.889,877.11a0.889,0.889,0,1,0,.889-0.889A0.889,0.889,0,0,0,639.889,877.11Z" transform="translate(-311 -598)"/>
    <path id="Oval-346" data-name="Oval" class="cls-1" d="M620.333,603.332a0.889,0.889,0,1,0,.889-0.888A0.889,0.889,0,0,0,620.333,603.332Z" transform="translate(-311 -598)"/>
    <path id="Oval-347" data-name="Oval" class="cls-1" d="M620.333,622.888a0.889,0.889,0,1,0,.889-0.889A0.889,0.889,0,0,0,620.333,622.888Z" transform="translate(-311 -598)"/>
    <path id="Oval-348" data-name="Oval" class="cls-1" d="M620.333,642.443a0.889,0.889,0,1,0,.889-0.888A0.888,0.888,0,0,0,620.333,642.443Z" transform="translate(-311 -598)"/>
    <path id="Oval-349" data-name="Oval" class="cls-1" d="M620.333,662a0.889,0.889,0,1,0,.889-0.889A0.889,0.889,0,0,0,620.333,662Z" transform="translate(-311 -598)"/>
    <path id="Oval-350" data-name="Oval" class="cls-1" d="M620.333,681.555a0.889,0.889,0,1,0,.889-0.889A0.888,0.888,0,0,0,620.333,681.555Z" transform="translate(-311 -598)"/>
    <path id="Oval-351" data-name="Oval" class="cls-1" d="M620.333,701.11a0.889,0.889,0,1,0,.889-0.889A0.889,0.889,0,0,0,620.333,701.11Z" transform="translate(-311 -598)"/>
    <path id="Oval-352" data-name="Oval" class="cls-1" d="M620.333,720.666a0.889,0.889,0,1,0,.889-0.889A0.889,0.889,0,0,0,620.333,720.666Z" transform="translate(-311 -598)"/>
    <path id="Oval-353" data-name="Oval" class="cls-1" d="M620.333,740.222a0.889,0.889,0,1,0,.889-0.889A0.889,0.889,0,0,0,620.333,740.222Z" transform="translate(-311 -598)"/>
    <path id="Oval-354" data-name="Oval" class="cls-1" d="M620.333,759.777a0.889,0.889,0,1,0,.889-0.889A0.889,0.889,0,0,0,620.333,759.777Z" transform="translate(-311 -598)"/>
    <path id="Oval-355" data-name="Oval" class="cls-1" d="M620.333,779.333a0.889,0.889,0,1,0,.889-0.889A0.89,0.89,0,0,0,620.333,779.333Z" transform="translate(-311 -598)"/>
    <path id="Oval-356" data-name="Oval" class="cls-1" d="M620.333,798.888a0.889,0.889,0,1,0,.889-0.888A0.889,0.889,0,0,0,620.333,798.888Z" transform="translate(-311 -598)"/>
    <path id="Oval-357" data-name="Oval" class="cls-1" d="M620.333,818.444a0.889,0.889,0,1,0,.889-0.889A0.89,0.89,0,0,0,620.333,818.444Z" transform="translate(-311 -598)"/>
    <path id="Oval-358" data-name="Oval" class="cls-1" d="M620.333,838a0.889,0.889,0,1,0,.889-0.89A0.889,0.889,0,0,0,620.333,838Z" transform="translate(-311 -598)"/>
    <path id="Oval-359" data-name="Oval" class="cls-1" d="M620.333,857.555a0.889,0.889,0,1,0,.889-0.889A0.889,0.889,0,0,0,620.333,857.555Z" transform="translate(-311 -598)"/>
    <path id="Oval-360" data-name="Oval" class="cls-1" d="M620.333,877.11a0.889,0.889,0,1,0,.889-0.889A0.889,0.889,0,0,0,620.333,877.11Z" transform="translate(-311 -598)"/>
  </g>
  <g id="Icon" class="cls-2">
    <path id="Path" class="cls-3" d="M564.456,735.127a74.43,74.43,0,0,0-20.922-3.111,64.732,64.732,0,0,0-26.233,5.473c6.594-24.582,22.435-67,53.992-71.776a7.544,7.544,0,0,0,6.115-5.491l6.9-25.12a7.749,7.749,0,0,0-.953-6.242,7.49,7.49,0,0,0-5.246-3.373A51.545,51.545,0,0,0,571.05,625c-37.878,0-75.391,40.259-91.22,97.9-9.292,33.818-12.016,84.662,10.872,116.665,12.808,17.907,31.494,27.47,55.539,28.425,0.1,0,.2.006,0.293,0.006,29.669,0,55.977-20.346,63.98-49.473a68.333,68.333,0,0,0-6.09-51.433A66.855,66.855,0,0,0,564.456,735.127Z" transform="translate(-311 -598)"/>
    <path id="Path-2" data-name="Path" class="cls-3" d="M464.422,767.094a66.844,66.844,0,0,0-39.967-31.969,74.461,74.461,0,0,0-20.92-3.11,64.765,64.765,0,0,0-26.236,5.472c6.594-24.582,22.436-67,54-71.774a7.549,7.549,0,0,0,6.114-5.492l6.9-25.119a7.749,7.749,0,0,0-.954-6.242,7.476,7.476,0,0,0-5.245-3.373,51.479,51.479,0,0,0-7.056-.488c-37.879,0-75.392,40.259-91.224,97.9-9.289,33.818-12.014,84.662,10.877,116.67,12.806,17.9,31.5,27.47,55.537,28.422,0.1,0,.195.006,0.3,0.006,29.665,0,55.977-20.345,63.98-49.473A68.369,68.369,0,0,0,464.422,767.094Z" transform="translate(-311 -598)"/>
  </g>
</svg>
